<?xml version="1.0" encoding="UTF-8" standalone="no"?>
<!DOCTYPE svg PUBLIC "-//W3C//DTD SVG 1.1//EN" "http://www.w3.org/Graphics/SVG/1.1/DTD/svg11.dtd">
<svg xmlns="http://www.w3.org/2000/svg" xmlns:xlink="http://www.w3.org/1999/xlink" version="1.1" width="192.257pt" height="221.752pt" viewBox="0 0 192.257 221.752">
<g enable-background="new">
<symbol id="font_0_1">
<path d="M .44600005 .418 C .41400004 .412 .402 .388 .402 .36900003 C .402 .345 .42100004 .337 .43500004 .337 C .46500004 .337 .486 .363 .486 .39000003 C .486 .432 .43800003 .451 .39600004 .451 C .335 .451 .30100004 .391 .29200004 .372 C .26900003 .447 .20700002 .451 .18900001 .451 C .087 .451 .033000005 .32 .033000005 .298 C .033000005 .294 .037000006 .289 .044000005 .289 C .052000006 .289 .054 .29500003 .056000007 .299 C .09 .41 .157 .43100003 .18600002 .43100003 C .231 .43100003 .24000001 .389 .24000001 .365 C .24000001 .343 .23400003 .32 .222 .272 L .18800001 .135 C .17300001 .075 .14400001 .020000002 .091000009 .020000002 C .08600001 .020000002 .061 .020000002 .040000004 .033000005 C .076000008 .040000004 .08400001 .07 .08400001 .082 C .08400001 .102000009 .069000009 .114 .05 .114 C .026 .114 0 .093 0 .061000006 C 0 .019000002 .047000003 0 .09 0 C .13800001 0 .172 .038000004 .19300002 .079 C .20900002 .020000002 .259 0 .296 0 C .39800004 0 .45200003 .13100001 .45200003 .15300001 C .45200003 .158 .448 .16200002 .44200004 .16200002 C .43300004 .16200002 .432 .157 .42900003 .14900002 C .402 .061000006 .344 .020000002 .29900003 .020000002 C .26400004 .020000002 .245 .046000005 .245 .087000008 C .245 .109000008 .24900002 .125 .26500003 .19100002 L .3 .327 C .31500004 .387 .349 .43100003 .395 .43100003 C .397 .43100003 .425 .43100003 .44600005 .418 Z "/>
</symbol>
<use xlink:href="#font_0_1" transform="matrix(11.9552,0,0,-11.9552,151.64376,218.71756)" fill="#6100ad"/>
<symbol id="font_0_2">
<path d="M .23600002 .09200001 C .20900002 .054000006 .17000002 .019999996 .121 .019999996 C .109000008 .019999996 .061000006 .022 .046000005 .068 C .049000004 .067 .053999999 .067 .056 .067 C .086 .067 .106 .093 .106 .116000007 C .106 .139 .087000008 .14700002 .072000008 .14700002 C .056 .14700002 .021 .135 .021 .086 C .021 .034999998 .064 0 .121 0 C .22100002 0 .322 .09200001 .35 .20300001 L .448 .59300008 C .449 .59800007 .451 .60400006 .451 .61 C .451 .62500008 .439 .63500007 .42400003 .63500007 C .41500003 .63500007 .39400003 .63100007 .386 .601 L .312 .307 C .307 .289 .307 .287 .299 .27600003 C .279 .24800001 .246 .21400002 .19800002 .21400002 C .14200002 .21400002 .13700001 .26900003 .13700001 .296 C .13700001 .35300002 .16400002 .43 .19100002 .50200006 C .20200002 .531 .20800002 .545 .20800002 .56500008 C .20800002 .60700008 .17800002 .64500007 .12900001 .64500007 C .037 .64500007 0 .5 0 .49200005 C 0 .48800005 .0040000008 .48300005 .011000002 .48300005 C .020000002 .48300005 .021 .48700006 .025 .50100007 C .049000004 .58500006 .087000008 .62500008 .12600002 .62500008 C .135 .62500008 .15200001 .62500008 .15200001 .592 C .15200001 .56600007 .14100002 .537 .12600002 .499 C .077 .36800004 .077 .33500005 .077 .31100003 C .077 .216 .14500001 .194 .19500003 .194 C .22400002 .194 .26 .20300001 .29500003 .24000001 L .296 .23900001 C .28100003 .18 .271 .141 .23600002 .09200001 Z "/>
</symbol>
<use xlink:href="#font_0_2" transform="matrix(11.9552,0,0,-11.9552,3.4767905,71.051868)" fill="#6100ad"/>
<path transform="matrix(1,0,0,-1,6.223,216.024)" stroke-width=".99628" stroke-linecap="butt" stroke-miterlimit="10" stroke-linejoin="miter" fill="none" stroke="#6100ad" d="M 133.26569 0 L 0 0 L 0 133.26569 "/>
<path transform="matrix(1,0,0,-1,139.4887,216.024)" d="M 6.17204 0 C 5.4141 .16904 2.08237 1.12698 0 2.16945 L 0 -2.16945 C 2.08237 -1.12698 5.4141 -.16904 6.17204 0 Z " fill="#6100ad"/>
<path transform="matrix(1,0,0,-1,139.4887,216.024)" stroke-width=".99628" stroke-linecap="butt" stroke-miterlimit="10" stroke-linejoin="miter" fill="none" stroke="#6100ad" d="M 6.17204 0 C 5.4141 .16904 2.08237 1.12698 0 2.16945 L 0 -2.16945 C 2.08237 -1.12698 5.4141 -.16904 6.17204 0 Z "/>
<path transform="matrix(0,-1,-1,-0,6.223,82.758319)" d="M 6.17204 0 C 5.4141 .16904 2.08237 1.12698 0 2.16945 L 0 -2.16945 C 2.08237 -1.12698 5.4141 -.16904 6.17204 0 Z " fill="#6100ad"/>
<path transform="matrix(0,-1,-1,-0,6.223,82.758319)" stroke-width=".99628" stroke-linecap="butt" stroke-miterlimit="10" stroke-linejoin="miter" fill="none" stroke="#6100ad" d="M 6.17204 0 C 5.4141 .16904 2.08237 1.12698 0 2.16945 L 0 -2.16945 C 2.08237 -1.12698 5.4141 -.16904 6.17204 0 Z "/>
<use xlink:href="#font_0_1" transform="matrix(11.9552,0,0,-11.9552,179.98976,163.83356)" fill="#1f6e96"/>
<symbol id="font_1_1">
<path d="M .23500002 .43300004 C .24000001 .446 .24400002 .453 .24400002 .463 C .24400002 .496 .21400002 .518 .186 .518 C .14600002 .518 .135 .48300005 .13100001 .46900005 L .0040000008 .038000004 C 0 .026 0 .023000002 0 .022 C 0 .013 .006000001 .011 .016000003 .008000001 C .034 0 .036 0 .038000004 0 C .041 0 .047000007 0 .054000006 .017 L .23500002 .43300004 Z "/>
</symbol>
<use xlink:href="#font_1_1" transform="matrix(7.9701,0,0,-7.9701,186.54611,159.04924)" fill="#1f6e96"/>
<use xlink:href="#font_0_2" transform="matrix(11.9552,0,0,-11.9552,30.425789,14.358859)" fill="#1f6e96"/>
<use xlink:href="#font_1_1" transform="matrix(7.9701,0,0,-7.9701,36.4791,7.2552268)" fill="#1f6e96"/>
<path transform="matrix(1,0,0,-1,6.223,216.024)" stroke-width=".99628" stroke-linecap="butt" stroke-miterlimit="10" stroke-linejoin="miter" fill="none" stroke="#1f6e96" d="M 161.6125 56.69363 L 28.3468 56.69363 L 28.3468 189.95932 "/>
<path transform="matrix(1,0,0,-1,167.83551,159.33037)" d="M 6.17204 0 C 5.4141 .16904 2.08237 1.12698 0 2.16945 L 0 -2.16945 C 2.08237 -1.12698 5.4141 -.16904 6.17204 0 Z " fill="#1f6e96"/>
<path transform="matrix(1,0,0,-1,167.83551,159.33037)" stroke-width=".99628" stroke-linecap="butt" stroke-miterlimit="10" stroke-linejoin="miter" fill="none" stroke="#1f6e96" d="M 6.17204 0 C 5.4141 .16904 2.08237 1.12698 0 2.16945 L 0 -2.16945 C 2.08237 -1.12698 5.4141 -.16904 6.17204 0 Z "/>
<path transform="matrix(0,-1,-1,-0,34.5698,26.064682)" d="M 6.17204 0 C 5.4141 .16904 2.08237 1.12698 0 2.16945 L 0 -2.16945 C 2.08237 -1.12698 5.4141 -.16904 6.17204 0 Z " fill="#1f6e96"/>
<path transform="matrix(0,-1,-1,-0,34.5698,26.064682)" stroke-width=".99628" stroke-linecap="butt" stroke-miterlimit="10" stroke-linejoin="miter" fill="none" stroke="#1f6e96" d="M 6.17204 0 C 5.4141 .16904 2.08237 1.12698 0 2.16945 L 0 -2.16945 C 2.08237 -1.12698 5.4141 -.16904 6.17204 0 Z "/>
<use xlink:href="#font_0_1" transform="matrix(11.9552,0,0,-11.9552,171.44275,212.30956)" fill="#f58000"/>
<use xlink:href="#font_1_1" transform="matrix(7.9701,0,0,-7.9701,177.9991,207.52524)" fill="#f58000"/>
<use xlink:href="#font_1_1" transform="matrix(7.9701,0,0,-7.9701,180.2945,207.52524)" fill="#f58000"/>
<use xlink:href="#font_0_2" transform="matrix(11.9552,0,0,-11.9552,77.75379,22.905858)" fill="#f58000"/>
<use xlink:href="#font_1_1" transform="matrix(7.9701,0,0,-7.9701,83.807109,15.802223)" fill="#f58000"/>
<use xlink:href="#font_1_1" transform="matrix(7.9701,0,0,-7.9701,86.10249,15.802223)" fill="#f58000"/>
<path transform="matrix(1,0,0,-1,6.223,216.024)" stroke-width=".99628" stroke-linecap="butt" stroke-miterlimit="10" stroke-linejoin="miter" fill="none" stroke="#f58000" d="M 153.57634 11.1132 L 28.3468 56.69363 L 73.92723 181.92316 "/>
<path transform="matrix(.93968,.34201,.34201,-.93968,159.79933,204.9108)" d="M 6.17204 0 C 5.4141 .16904 2.08237 1.12698 0 2.16945 L 0 -2.16945 C 2.08237 -1.12698 5.4141 -.16904 6.17204 0 Z " fill="#f58000"/>
<path transform="matrix(.93968,.34201,.34201,-.93968,159.79933,204.9108)" stroke-width=".99628" stroke-linecap="butt" stroke-miterlimit="10" stroke-linejoin="miter" fill="none" stroke="#f58000" d="M 6.17204 0 C 5.4141 .16904 2.08237 1.12698 0 2.16945 L 0 -2.16945 C 2.08237 -1.12698 5.4141 -.16904 6.17204 0 Z "/>
<path transform="matrix(.34201,-.93968,-.93968,-.34201,80.15023,34.10086)" d="M 6.17204 0 C 5.4141 .16904 2.08237 1.12698 0 2.16945 L 0 -2.16945 C 2.08237 -1.12698 5.4141 -.16904 6.17204 0 Z " fill="#f58000"/>
<path transform="matrix(.34201,-.93968,-.93968,-.34201,80.15023,34.10086)" stroke-width=".99628" stroke-linecap="butt" stroke-miterlimit="10" stroke-linejoin="miter" fill="none" stroke="#f58000" d="M 6.17204 0 C 5.4141 .16904 2.08237 1.12698 0 2.16945 L 0 -2.16945 C 2.08237 -1.12698 5.4141 -.16904 6.17204 0 Z "/>
<path transform="matrix(1,0,0,-1,6.223,216.024)" stroke-width=".3985" stroke-linecap="butt" stroke-miterlimit="10" stroke-linejoin="miter" fill="none" stroke="#000000" d="M 28.3468 184.25342 C 43.22319 184.25342 57.99643 181.6491 63.73698 179.55954 "/>
<path transform="matrix(.9397,.342,.342,-.9397,69.95997,36.464448)" d="M 7.84872 0 C 6.88487 .20735 2.64804 1.38239 0 2.66109 L 0 -2.66109 C 2.64804 -1.38239 6.88487 -.20735 7.84872 0 Z "/>
<path transform="matrix(.9397,.342,.342,-.9397,69.95997,36.464448)" stroke-width=".3985" stroke-linecap="butt" stroke-miterlimit="10" stroke-linejoin="miter" fill="none" stroke="#000000" d="M 7.84872 0 C 6.88487 .20735 2.64804 1.38239 0 2.66109 L 0 -2.66109 C 2.64804 -1.38239 6.88487 -.20735 7.84872 0 Z "/>
<symbol id="font_2_1">
<path d="M .41300003 .511 C .41300003 .577 .395 .716 .293 .716 C .15400002 .716 0 .43400003 0 .20500002 C 0 .111 .029 0 .12 0 C .261 0 .41300003 .28700004 .41300003 .511 M .106 .374 C .123 .43800003 .143 .518 .183 .589 C .21000001 .638 .24700001 .694 .29200004 .694 C .34100003 .694 .34700004 .63 .34700004 .573 C .34700004 .524 .33900003 .47300003 .31500004 .374 L .106 .374 M .30600003 .34200005 C .29500003 .29600004 .27400003 .21100001 .23600003 .13900002 C .201 .071 .16300002 .022000002 .12 .022000002 C .087000008 .022000002 .066 .051000004 .066 .14400001 C .066 .18600002 .072000008 .24400002 .098 .34200005 L .30600003 .34200005 Z "/>
</symbol>
<use xlink:href="#font_2_1" transform="matrix(9.9626,0,0,-9.9626,54.66043,30.465592)"/>
</g>
</svg>
